<svg width="3" height="10" viewBox="0 0 3 10" fill="none" xmlns="http://www.w3.org/2000/svg">
<path d="M0.026838 7.74106L1.30991 9.9C1.33055 9.93071 1.35874 9.95594 1.39193 9.9734C1.42512 9.99086 1.46226 10 1.5 10C1.53774 10 1.57488 9.99086 1.60807 9.9734C1.64126 9.95594 1.66945 9.93071 1.69008 9.9L2.97316 7.74106C2.99664 7.69899 3.00505 7.65052 2.99706 7.6033C2.98907 7.55607 2.96514 7.51277 2.92903 7.48022C2.89292 7.44768 2.8467 7.42774 2.79765 7.42355C2.7486 7.41936 2.6995 7.43115 2.65811 7.45708L1.72001 7.45708L1.72001 0.213841C1.72001 0.157127 1.69683 0.102735 1.65557 0.0626324C1.61431 0.0225295 1.55835 -1.26033e-07 1.5 -1.31134e-07C1.44165 -1.36235e-07 1.38569 0.0225295 1.34443 0.0626324C1.30317 0.102735 1.27999 0.157127 1.27999 0.213841L1.27999 7.45708L0.341886 7.45708C0.300494 7.43115 0.251402 7.41936 0.202349 7.42355C0.153297 7.42774 0.107075 7.44768 0.0709696 7.48022C0.0348642 7.51277 0.0109291 7.55607 0.00293848 7.60329C-0.00505188 7.65052 0.00335666 7.69899 0.026838 7.74106Z" fill="#111111"/>
</svg>
