<svg width="43" height="43" viewBox="0 0 43 43" fill="none" xmlns="http://www.w3.org/2000/svg">
<circle cx="21.5" cy="21.5" r="21.5" fill="#0C5959"/>
<g clip-path="url(#clip0_448_9501)">
<path d="M26.9996 12H16.9999C14.2502 12 12 14.2502 12 16.9999V27.0001C12 29.7491 14.2502 32 16.9999 32H26.9996C29.7493 32 31.9995 29.7491 31.9995 27.0001V16.9999C31.9995 14.2502 29.7493 12 26.9996 12ZM30.3328 27.0001C30.3328 28.8376 28.8381 30.3333 26.9996 30.3333H16.9999C15.1622 30.3333 13.6667 28.8376 13.6667 27.0001V16.9999C13.6667 15.1619 15.1622 13.6667 16.9999 13.6667H26.9996C28.8381 13.6667 30.3328 15.1619 30.3328 16.9999V27.0001Z" fill="white"/>
<path d="M27.417 17.8339C28.1073 17.8339 28.6669 17.2743 28.6669 16.584C28.6669 15.8936 28.1073 15.334 27.417 15.334C26.7266 15.334 26.167 15.8936 26.167 16.584C26.167 17.2743 26.7266 17.8339 27.417 17.8339Z" fill="white"/>
<path d="M21.9999 17C19.2379 17 17 19.2382 17 21.9999C17 24.7606 19.2379 27.0002 21.9999 27.0002C24.761 27.0002 26.9998 24.7606 26.9998 21.9999C26.9998 19.2382 24.761 17 21.9999 17ZM21.9999 25.3335C20.1592 25.3335 18.6667 23.8411 18.6667 21.9999C18.6667 20.1587 20.1592 18.6667 21.9999 18.6667C23.8406 18.6667 25.333 20.1587 25.333 21.9999C25.333 23.8411 23.8406 25.3335 21.9999 25.3335Z" fill="white"/>
</g>
<defs>
<clipPath id="clip0_448_9501">
<rect width="20" height="20" fill="white" transform="translate(12 12)"/>
</clipPath>
</defs>
</svg>
