<svg width="63" height="35" viewBox="0 0 63 35" fill="none" xmlns="http://www.w3.org/2000/svg">
<rect width="63" height="35" rx="5" fill="white"/>
<g clip-path="url(#clip0_448_9515)">
<path d="M24.1688 26.9605V25.7659C24.1688 25.3089 23.8926 25.0097 23.4184 25.0097C23.1813 25.0097 22.9235 25.0886 22.7463 25.3484C22.6082 25.1303 22.4102 25.0097 22.1133 25.0097C21.9153 25.0097 21.7173 25.07 21.5608 25.2881V25.0492H21.1465V26.9605H21.5608V25.9051C21.5608 25.5664 21.7381 25.4064 22.0143 25.4064C22.2905 25.4064 22.4286 25.585 22.4286 25.9051V26.9605H22.8429V25.9051C22.8429 25.5664 23.0409 25.4064 23.2964 25.4064C23.5726 25.4064 23.7107 25.585 23.7107 25.9051V26.9605H24.1688ZM30.3147 25.0492H29.6426V24.4716H29.2282V25.0492H28.853V25.4272H29.2282V26.3041C29.2282 26.7425 29.4055 26.9999 29.8797 26.9999C30.0569 26.9999 30.2549 26.9396 30.393 26.8608L30.2733 26.5012C30.1536 26.5801 30.0155 26.601 29.9165 26.601C29.7185 26.601 29.6403 26.4803 29.6403 26.2832V25.4272H30.3124V25.0492H30.3147ZM33.8319 25.0074C33.5948 25.0074 33.436 25.128 33.337 25.2858V25.0468H32.9227V26.9582H33.337V25.8819C33.337 25.5641 33.4751 25.3832 33.733 25.3832C33.8112 25.3832 33.9102 25.4041 33.9908 25.4226L34.1105 25.0236C34.0276 25.0074 33.9102 25.0074 33.8319 25.0074ZM28.517 25.2069C28.319 25.0677 28.0428 25.0074 27.7459 25.0074C27.2717 25.0074 26.9563 25.2463 26.9563 25.6244C26.9563 25.9422 27.1934 26.1231 27.6078 26.1811L27.8057 26.202C28.0221 26.2414 28.1418 26.3017 28.1418 26.4015C28.1418 26.5407 27.983 26.6404 27.7067 26.6404C27.4305 26.6404 27.2118 26.5407 27.0737 26.4409L26.8758 26.7587C27.0921 26.9187 27.3891 26.9976 27.686 26.9976C28.2385 26.9976 28.5561 26.7378 28.5561 26.3806C28.5561 26.0419 28.2983 25.8633 27.9047 25.803L27.7067 25.7821C27.5295 25.7613 27.3914 25.7218 27.3914 25.6035C27.3914 25.4644 27.5295 25.3855 27.7482 25.3855C27.9853 25.3855 28.2223 25.4852 28.342 25.5455L28.517 25.2069ZM39.5405 25.0074C39.3034 25.0074 39.1446 25.128 39.0456 25.2858V25.0468H38.6313V26.9582H39.0456V25.8819C39.0456 25.5641 39.1837 25.3832 39.4415 25.3832C39.5198 25.3832 39.6188 25.4041 39.6993 25.4226L39.819 25.0283C39.7385 25.0074 39.6211 25.0074 39.5405 25.0074ZM34.2463 26.0048C34.2463 26.5824 34.6422 26.9999 35.2545 26.9999C35.5307 26.9999 35.7287 26.9396 35.9266 26.7819L35.7287 26.4432C35.5698 26.5638 35.4133 26.6218 35.2338 26.6218C34.8977 26.6218 34.6606 26.3829 34.6606 26.0048C34.6606 25.6453 34.8977 25.4064 35.2338 25.3878C35.411 25.3878 35.5698 25.4481 35.7287 25.5664L35.9266 25.2278C35.7287 25.0677 35.5307 25.0097 35.2545 25.0097C34.6422 25.0074 34.2463 25.4272 34.2463 26.0048ZM38.0788 26.0048V25.0492H37.6645V25.2881C37.5264 25.1095 37.3284 25.0097 37.0706 25.0097C36.5366 25.0097 36.1223 25.4272 36.1223 26.0048C36.1223 26.5824 36.5366 26.9999 37.0706 26.9999C37.3468 26.9999 37.5448 26.9002 37.6645 26.7216V26.9605H38.0788V26.0048ZM36.5573 26.0048C36.5573 25.6662 36.7737 25.3878 37.1305 25.3878C37.4665 25.3878 37.7036 25.6476 37.7036 26.0048C37.7036 26.3435 37.4665 26.6218 37.1305 26.6218C36.776 26.601 36.5573 26.3412 36.5573 26.0048ZM31.5991 25.0074C31.0467 25.0074 30.6508 25.4064 30.6508 26.0025C30.6508 26.601 31.0467 26.9976 31.6199 26.9976C31.8961 26.9976 32.1723 26.9187 32.391 26.7378L32.193 26.4386C32.0342 26.5592 31.8362 26.6381 31.6406 26.6381C31.3828 26.6381 31.1273 26.5175 31.0674 26.1811H32.4692C32.4692 26.1208 32.4692 26.0814 32.4692 26.0211C32.4877 25.4064 32.1309 25.0074 31.5991 25.0074ZM31.5991 25.3669C31.857 25.3669 32.0342 25.527 32.0733 25.8239H31.0858C31.125 25.5664 31.3022 25.3669 31.5991 25.3669ZM41.893 26.0048V24.293H41.4786V25.2881C41.3405 25.1095 41.1426 25.0097 40.8848 25.0097C40.3507 25.0097 39.9364 25.4272 39.9364 26.0048C39.9364 26.5824 40.3507 26.9999 40.8848 26.9999C41.161 26.9999 41.359 26.9002 41.4786 26.7216V26.9605H41.893V26.0048ZM40.3715 26.0048C40.3715 25.6662 40.5878 25.3878 40.9446 25.3878C41.2807 25.3878 41.5178 25.6476 41.5178 26.0048C41.5178 26.3435 41.2807 26.6218 40.9446 26.6218C40.5878 26.601 40.3715 26.3412 40.3715 26.0048ZM26.5006 26.0048V25.0492H26.0862V25.2881C25.9481 25.1095 25.7502 25.0097 25.4924 25.0097C24.9583 25.0097 24.544 25.4272 24.544 26.0048C24.544 26.5824 24.9583 26.9999 25.4924 26.9999C25.7686 26.9999 25.9665 26.9002 26.0862 26.7216V26.9605H26.5006V26.0048ZM24.9606 26.0048C24.9606 25.6662 25.177 25.3878 25.5338 25.3878C25.8699 25.3878 26.107 25.6476 26.107 26.0048C26.107 26.3435 25.8699 26.6218 25.5338 26.6218C25.177 26.601 24.9606 26.3412 24.9606 26.0048Z" fill="black"/>
<path d="M34.6031 10.5332H28.3789V21.8018H34.6031V10.5332Z" fill="#FF5A00"/>
<path d="M28.793 16.1675C28.793 13.8781 29.8611 11.8461 31.5 10.5332C30.2938 9.57758 28.7723 9 27.1127 9C23.1811 9 20 12.2057 20 16.1675C20 20.1294 23.1811 23.335 27.1127 23.335C28.7723 23.335 30.2938 22.7575 31.5 21.8018C29.8588 20.5075 28.793 18.457 28.793 16.1675Z" fill="#EB001B"/>
<path d="M43 16.1675C43 20.1294 39.8189 23.335 35.8873 23.335C34.2277 23.335 32.7062 22.7575 31.5 21.8018C33.1596 20.4866 34.207 18.457 34.207 16.1675C34.207 13.8781 33.1389 11.8461 31.5 10.5332C32.7039 9.57758 34.2254 9 35.885 9C39.8189 9 43 12.2265 43 16.1675Z" fill="#F79E1B"/>
</g>
<defs>
<clipPath id="clip0_448_9515">
<rect width="23" height="18" fill="white" transform="translate(20 9)"/>
</clipPath>
</defs>
</svg>
