<svg width="44" height="47" viewBox="0 0 44 47" fill="none" xmlns="http://www.w3.org/2000/svg">
<path d="M40.2391 25.2127V19.1489C40.2391 17.1576 38.6191 15.5376 36.6278 15.5376H22.2406C22.4036 14.9316 22.4883 14.3017 22.4883 13.6586C22.4883 13.0479 22.4113 12.455 22.2677 11.8883C23.5897 13.4282 25.5484 14.4066 27.7324 14.4066C31.7043 14.4066 34.9357 11.1752 34.9357 7.20329C34.9357 3.23134 31.7043 0 27.7323 0C23.7604 0 20.529 3.23134 20.529 7.20329C20.529 7.81401 20.6061 8.40702 20.7497 8.97359C19.4277 7.4337 17.469 6.45533 15.285 6.45533C11.3131 6.45533 8.08178 9.68675 8.08178 13.6586C8.08178 14.3016 8.16651 14.9314 8.32954 15.5376H3.61119C1.61994 15.5376 0 17.1575 0 19.1489V43.3887C0 45.38 1.61994 46.9999 3.61119 46.9999H36.6278C38.619 46.9999 40.2391 45.38 40.2391 43.3887V37.3249C41.8982 37.131 43.1901 35.7175 43.1901 34.0073V28.5305C43.1902 26.82 41.8982 25.4065 40.2391 25.2127ZM27.7323 3.03746C30.0293 3.03746 31.8981 4.90626 31.8981 7.20329C31.8981 9.50031 30.0293 11.3691 27.7323 11.3691C25.4353 11.3691 23.5665 9.50031 23.5665 7.20329C23.5665 4.90626 25.4353 3.03746 27.7323 3.03746ZM15.2851 9.4927C17.5821 9.4927 19.4509 11.3615 19.4509 13.6585C19.4509 14.3209 19.2982 14.9595 19.0048 15.5375H11.5653C11.272 14.9594 11.1192 14.3209 11.1192 13.6585C11.1193 11.3616 12.988 9.4927 15.2851 9.4927ZM37.2016 43.3886C37.2016 43.705 36.9442 43.9624 36.6277 43.9624H3.6111C3.29467 43.9624 3.03737 43.705 3.03737 43.3886V19.1488C3.03737 18.8324 3.29477 18.5749 3.6111 18.5749C4.26588 18.5749 35.8388 18.5749 36.6277 18.5749C36.9441 18.5749 37.2016 18.8323 37.2016 19.1488V25.1892C36.2567 25.1892 27.4315 25.1892 26.4841 25.1892C24.7014 25.1892 23.251 26.6396 23.251 28.4223C23.251 29.6915 23.251 33.6459 23.251 34.1152C23.251 35.8979 24.7014 37.3483 26.4841 37.3483C27.4314 37.3483 36.2567 37.3483 37.2016 37.3483V43.3886ZM40.1528 34.0071C40.1528 34.1745 40.0166 34.3108 39.8491 34.3108C39.3697 34.3108 27.2562 34.3108 26.5922 34.3108C26.4248 34.3108 26.2885 34.1746 26.2885 34.0071V28.5303C26.2885 28.3629 26.4248 28.2267 26.5922 28.2267C27.2709 28.2267 39.3786 28.2267 39.8491 28.2267C40.0165 28.2267 40.1528 28.3629 40.1528 28.5303V34.0071Z" fill="#8199D5"/>
</svg>
