<svg width="46" height="46" viewBox="0 0 46 46" fill="none" xmlns="http://www.w3.org/2000/svg">
<path d="M43.7327 12.1736C43.7417 12.1685 43.7506 12.1633 43.7595 12.158C43.8812 12.1076 44.2852 11.981 44.9131 11.8572C45.5447 11.7327 46.0001 11.1788 46.0001 10.535V5.07168C46.0001 4.25761 45.2812 3.62538 44.4686 3.7366C43.6657 3.84711 42.3634 4.0763 41.1385 4.51079V1.34766C41.1385 0.603391 40.5351 0 39.7908 0H34.389C33.6447 0 33.0413 0.603391 33.0413 1.34766V3.94189C31.0801 3.53688 28.978 3.61666 27.0937 4.16408V1.34766C27.0937 0.603391 26.4903 0 25.7461 0H20.3442C19.6 0 18.9966 0.603391 18.9966 1.34766V4.16929C17.0414 3.60363 14.9519 3.55296 13.049 3.94225V1.34766C13.049 0.603391 12.4456 0 11.7013 0H6.2993C5.55504 0 4.95165 0.603391 4.95165 1.34766V4.51267C3.6942 4.06974 2.34636 3.84558 1.51764 3.7402C0.717133 3.63714 0 4.26264 0 5.07707V10.5288C0 11.1806 0.466469 11.7391 1.10795 11.855C1.76184 11.9731 2.20342 12.1074 2.33019 12.1589C2.33657 12.1626 2.3433 12.1664 2.35013 12.1702C3.13645 12.6319 4.00874 12.9866 4.95174 13.2332V18.8995C3.6942 18.4565 2.34636 18.2324 1.51764 18.1271C0.714797 18.0237 0 18.6516 0 19.4638V24.9156C0 25.5675 0.466559 26.1259 1.10804 26.2417C1.67397 26.344 2.23271 26.4923 2.35355 26.5588C3.13896 27.0196 4.01009 27.3735 4.95165 27.6198V32.3876C3.6942 31.9446 2.34636 31.7204 1.51764 31.6151C0.714527 31.5128 0 32.1392 0 32.952V38.4028C0 39.0541 0.46575 39.6121 1.10643 39.7287C1.76229 39.848 2.20396 39.9824 2.3301 40.0338C2.33585 40.0372 2.34178 40.0405 2.34753 40.0437L2.35166 40.0461C3.13752 40.5073 4.00928 40.8616 4.95156 41.108V44.6523C4.95156 45.3966 5.55495 46 6.29921 46H11.7011C12.4453 46 13.0487 45.3966 13.0487 44.6523V40.4617C13.9054 40.0629 14.2017 39.6507 15.5706 39.6507C17.1758 39.6507 17.1068 40.1602 18.9963 40.831V44.6523C18.9963 45.3966 19.5997 46 20.3439 46H25.7458C26.4901 46 27.0935 45.3966 27.0935 44.6523V40.8303C27.7006 40.6146 28.2717 40.3513 28.7985 40.0416H28.7984C29.724 39.4965 31.341 39.5323 32.246 40.0477C32.4995 40.1964 32.7654 40.3348 33.0411 40.463V44.6523C33.0411 45.3966 33.6445 46 34.3888 46H39.7906C40.5349 46 41.1383 45.3966 41.1383 44.6523V41.1076C42.0778 40.8616 42.9471 40.5083 43.7309 40.0487C43.7393 40.0439 43.7476 40.0392 43.7559 40.0345C43.8734 39.9851 44.2789 39.8571 44.9129 39.7322C45.5445 39.6077 45.9999 39.0538 45.9999 38.41V32.9466C45.9999 32.13 45.2777 31.4998 44.4684 31.6115C43.6655 31.722 42.3633 31.9512 41.1383 32.3857V27.6193C42.0742 27.3742 42.9406 27.0228 43.7221 26.5657C43.7339 26.5592 43.7457 26.5524 43.7578 26.5453C43.8777 26.4953 44.2824 26.3681 44.9126 26.244C45.5444 26.1196 46 25.5656 46 24.9217V19.4584C46 18.6425 45.2778 18.011 44.4685 18.1234C43.6651 18.2339 42.3617 18.4632 41.1384 18.897V13.2327C42.0781 12.9866 42.9481 12.6333 43.7327 12.1736ZM43.3047 6.68752V9.47205C42.2572 9.77671 42.3389 9.98883 41.1384 10.4156V7.4432C41.6572 7.15704 42.4178 6.89416 43.3047 6.68752ZM35.7365 2.69531H38.4431V6.60441V12.1425V19.9078C36.883 20.052 36.2919 19.5325 35.7365 19.2529V11.6853V5.73922V2.69531ZM27.0935 18.5509V12.9555C27.7729 12.7141 28.402 12.4101 28.8704 12.1244C29.5906 11.696 31.2323 11.6005 32.2476 12.1738C32.5007 12.3221 32.766 12.4602 33.0411 12.5882V18.3287C31.0802 17.9236 28.9782 18.0034 27.0935 18.5509ZM33.0412 26.9749V31.8161C31.0802 31.4114 28.9782 31.4913 27.0936 32.039V27.3421C27.7744 27.1003 28.403 26.7963 28.8705 26.5111C29.6339 26.0569 31.2625 26.041 32.1043 26.4798C32.2858 26.5782 32.5414 26.7424 33.0412 26.9749ZM15.5707 31.5648C14.7124 31.5648 13.8623 31.6508 13.0489 31.8172V26.9734C13.5442 26.7429 13.986 26.4761 13.9326 26.5062C14.9765 25.9921 16.5481 26.1096 17.2244 26.5154C17.7695 26.842 18.3633 27.1181 18.9966 27.343V32.0442C17.9155 31.7315 16.7478 31.5648 15.5707 31.5648ZM13.0488 12.5867C13.8928 12.194 14.2139 11.7758 15.5706 11.7758C17.1767 11.7758 17.1078 12.2857 18.9964 12.9561V18.5559C17.0411 17.9902 14.9517 17.9396 13.0488 18.3287V12.5867ZM24.3982 13.5613V33.2085C23.6536 33.4828 22.4464 33.4877 21.6917 33.2107C21.6917 32.152 21.6917 14.6292 21.6917 13.5616C22.559 13.6538 23.4882 13.6583 24.3982 13.5613ZM24.3982 2.69531V5.33357C23.618 5.61883 22.4102 5.60176 21.6917 5.33573V2.69531H24.3982ZM20.0067 7.50833C20.8154 7.99232 21.9292 8.23418 23.043 8.23418C24.9467 8.23418 25.8813 7.60482 26.3784 7.34068C28.2631 6.33929 30.8385 6.11315 33.0412 6.7116V9.55695C31.3635 8.83784 28.9475 8.93496 27.4789 9.81615C27.4737 9.81929 27.4725 9.82001 27.4673 9.82325L27.4465 9.83529C27.4418 9.83789 27.4372 9.84059 27.4326 9.84328C24.915 11.3234 21.0725 11.2919 18.6104 9.81705C17.1631 8.94862 14.7395 8.83164 13.049 9.5556V6.71016C15.348 6.08871 18.1011 6.36237 20.0067 7.50833ZM7.64696 2.69531H10.3535V19.2512C9.77096 19.5465 9.19722 20.0516 7.64696 19.909C7.64696 19.8455 7.64696 3.15864 7.64696 2.69531ZM2.69531 9.44986V6.67341C3.62385 6.87736 4.40818 7.14339 4.95165 7.4449V10.4161C3.77029 9.99638 3.81027 9.75541 2.69531 9.44986ZM2.69531 23.8365V21.0602C4.73809 21.5088 4.92101 21.9277 5.84263 22.2609C9.14843 23.4514 11.3155 21.7203 12.1947 21.3782C14.2409 20.5729 16.8908 20.5604 18.9964 21.3984V24.4176C18.8638 24.3498 18.735 24.2785 18.6102 24.2037C17.0816 23.2865 14.3393 23.1486 12.4862 24.2296C10.7959 25.2223 8.53641 25.5242 6.51349 25.1986C6.51331 25.1986 6.51304 25.1986 6.51286 25.1985C5.47157 25.0309 4.50207 24.6959 3.70947 24.2293C3.57605 24.1512 3.34398 24.0142 2.69531 23.8365ZM2.69531 37.3246V34.5483C3.62385 34.7523 4.40818 35.0183 4.95165 35.3199V38.291C3.64415 37.8265 3.89895 37.6553 2.69531 37.3246ZM10.3535 43.3047H7.64696C7.64696 43.0287 7.64696 28.4148 7.64696 28.0114C8.55241 28.0434 9.4795 27.9764 10.3535 27.8176V43.3047ZM24.3982 43.3047H21.6917V41.4365C22.5866 41.5315 23.5211 41.5296 24.3982 41.4362V43.3047ZM27.4325 37.7181C24.9275 39.1908 21.0836 39.1731 18.6104 37.6921C17.1638 36.8238 14.7401 36.7062 13.0489 37.4304V34.585C13.8394 34.3713 14.6963 34.2601 15.5707 34.2601C17.0891 34.2601 18.7196 34.6098 20.0067 35.3832C21.6434 36.3632 24.5063 36.3408 26.0949 35.3738C28.2949 34.1647 30.8455 33.9892 33.0412 34.5857V37.4319C31.4613 36.7549 29.09 36.7487 27.4325 37.7181ZM38.4431 43.3047H35.7365C35.7365 42.7612 35.7365 28.3128 35.7365 27.8178C36.5844 27.972 37.5135 28.0442 38.4431 28.0116V43.3047ZM43.3047 34.5624V37.3469C42.2529 37.6528 42.3255 37.8677 41.1384 38.2903V35.318C41.6572 35.032 42.4178 34.7691 43.3047 34.5624ZM43.3047 23.8587C42.7698 24.0142 42.5404 24.1336 42.3742 24.2317C39.9238 25.6719 36.1378 25.7141 33.546 24.1976C32.0635 23.2973 29.3622 23.1376 27.4324 24.2299C27.3225 24.2946 27.2095 24.3566 27.0936 24.4159V21.3969C29.1537 20.5753 31.7882 20.5528 33.8981 21.3809C35.0995 21.8504 35.2331 22.2621 36.766 22.5205C38.1495 22.7548 39.7993 22.6143 41.0747 21.8658C41.5939 21.5657 42.3806 21.2895 43.3047 21.0741V23.8587Z" fill="#8199D5"/>
</svg>
