<svg width="39" height="43" viewBox="0 0 39 43" fill="none" xmlns="http://www.w3.org/2000/svg">
<path d="M38.2303 7.07825L33.1165 3.10379C31.8459 2.116 30.3447 1.40738 28.7749 1.05373L24.2342 0.0305097C24.2332 0.0301817 24.2323 0.0301817 24.2313 0.0301817C24.1873 0.0200117 24.1424 0.0127944 24.0971 0.00787348C24.0889 0.00688929 24.081 0.00688929 24.0728 0.00590511C24.0367 0.00262449 24.0006 0.000656123 23.9639 0.000328061C23.9498 0.000328061 23.9357 0.00131225 23.9213 0.0016403C23.8914 0.00229643 23.8615 0.00393674 23.8317 0.00688929C23.8143 0.00885768 23.7969 0.0114822 23.7795 0.0137785C23.7536 0.0177154 23.7277 0.0219801 23.7018 0.0272291C23.6821 0.0314939 23.6624 0.0360868 23.6427 0.0410077C23.6309 0.0442883 23.6191 0.0459286 23.6073 0.0495373C20.9907 0.805719 17.4348 0.810968 15.1525 0.0626598C15.1328 0.0564266 15.1135 0.0518338 15.0938 0.0465848C15.0738 0.0410077 15.0544 0.0351026 15.0344 0.0305097C14.996 0.0219801 14.9576 0.0154189 14.9193 0.010498C14.914 0.00984189 14.9091 0.00852956 14.9042 0.00787348C14.8595 0.00262449 14.8149 0.000328061 14.7706 0C14.7588 0 14.747 0.000984189 14.7355 0.00131225C14.7027 0.00196837 14.6699 0.00295255 14.6378 0.00623317C14.622 0.00787348 14.6063 0.010498 14.5905 0.0124664C14.5623 0.016403 14.5341 0.0209959 14.5062 0.026573C14.4987 0.0282133 14.4908 0.0288694 14.4829 0.0305097L9.94223 1.05373C8.37246 1.40738 6.87125 2.11632 5.60067 3.10379L0.486843 7.07825C-0.0383829 7.48669 -0.155829 8.2327 0.218817 8.78253L4.79757 15.5009C5.16894 16.0461 5.89789 16.2121 6.46904 15.8821L7.59397 15.2316L7.58937 21.8292L6.83516 41.6923C6.82204 42.0345 6.949 42.3672 7.18651 42.6139C7.4237 42.8606 7.75144 43 8.09393 43H17.1058C17.7406 43 18.276 42.5279 18.3557 41.8984L19.3589 33.9721L20.3621 41.8984C20.4418 42.5279 20.9772 43 21.6117 43H30.6232C30.9657 43 31.2935 42.8606 31.5306 42.6139C31.7682 42.3672 31.8951 42.0345 31.882 41.6923L31.1275 21.8289L31.1232 15.2316L32.2481 15.8821C32.8189 16.2121 33.5482 16.0461 33.9196 15.5009L38.498 8.78253C38.873 8.2327 38.7555 7.48669 38.2303 7.07825ZM12.6655 10.0495L12.6008 3.03719L13.6867 2.79279C13.9367 3.83405 14.4308 4.85072 15.1226 5.71713C16.2761 7.16158 17.7803 7.95713 19.3576 7.95746H19.3586H19.3596C20.9372 7.95713 22.441 7.16158 23.5945 5.71713C24.2864 4.85072 24.7804 3.83405 25.0304 2.79279L26.05 3.02243L26.1147 10.0489L24.7962 10.1072H13.9233L12.6655 10.0495ZM22.3735 2.89449C21.78 4.36879 20.4776 5.43762 19.3586 5.43795C18.0795 5.43762 16.9309 4.27398 16.3742 2.92532C17.2806 3.06672 18.2514 3.13791 19.2356 3.13791C20.2873 3.13791 21.3542 3.05622 22.3735 2.89449ZM6.22037 13.1152L2.96732 8.34162L7.14682 5.09283C8.01585 4.41768 9.02497 3.91148 10.0866 3.61524L10.1509 10.6016L8.17726 11.9834L6.22037 13.1152ZM22.7222 40.4802L21.7751 32.9974C21.6189 31.7632 20.6029 30.8676 19.3589 30.8676C18.1149 30.8676 17.0989 31.7632 16.9427 32.9974L15.9956 40.4802H9.40257L10.1082 21.9011C10.1086 21.8853 10.1089 21.8696 10.1089 21.8541L10.1145 13.7028L11.7879 12.5316L13.8366 12.6254C13.856 12.6264 13.875 12.6268 13.8944 12.6268H24.8241C24.8428 12.6268 24.8612 12.6264 24.8799 12.6258L27.0027 12.5316L28.6027 13.6897L28.6083 21.8541C28.6083 21.8699 28.6086 21.8856 28.6093 21.9011L29.3149 40.4802H22.7222ZM32.4968 13.1152L30.5537 11.9913L28.6394 10.6059L28.5751 3.60015C29.6571 3.89409 30.6862 4.40587 31.5703 5.09283L35.7502 8.34162L32.4968 13.1152Z" fill="#8199D5"/>
</svg>
