<svg width="4" height="15" viewBox="0 0 4 15" fill="none" xmlns="http://www.w3.org/2000/svg">
<path d="M0.0357841 11.6116L1.74655 14.85C1.77407 14.8961 1.81165 14.9339 1.85591 14.9601C1.90016 14.9863 1.94968 15 2 15C2.05032 15 2.09984 14.9863 2.14409 14.9601C2.18834 14.9339 2.22593 14.8961 2.25345 14.85L3.96422 11.6116C3.99552 11.5485 4.00673 11.4758 3.99608 11.4049C3.98543 11.3341 3.95351 11.2692 3.90537 11.2203C3.85723 11.1715 3.7956 11.1416 3.7302 11.1353C3.6648 11.129 3.59934 11.1467 3.54415 11.1856L2.29334 11.1856L2.29334 0.320761C2.29334 0.23569 2.26244 0.154102 2.20742 0.0939482C2.15241 0.0337933 2.0778 -1.12172e-06 2 -1.12852e-06C1.9222 -1.13532e-06 1.84759 0.0337933 1.79258 0.0939482C1.73756 0.154102 1.70666 0.23569 1.70666 0.320761L1.70666 11.1856L0.455849 11.1856C0.400658 11.1467 0.335202 11.129 0.269799 11.1353C0.204396 11.1416 0.142767 11.1715 0.094626 11.2203C0.0464855 11.2692 0.0145722 11.3341 0.00391825 11.4049C-0.00673597 11.4758 0.00447566 11.5485 0.0357841 11.6116Z" fill="#0FBF4D"/>
</svg>
