<svg width="16" height="16" viewBox="0 0 16 16" fill="none" xmlns="http://www.w3.org/2000/svg">
<g clip-path="url(#clip0_2037_204)">
<path d="M15.142 2.718C14.9545 2.49296 14.7197 2.31197 14.4544 2.18788C14.189 2.06379 13.8996 1.99964 13.6067 2H2.828L2.8 1.766C2.7427 1.27961 2.50892 0.831155 2.14299 0.505652C1.77706 0.180149 1.30442 0.000227862 0.814667 0L0.666667 0C0.489856 0 0.320286 0.0702379 0.195262 0.195262C0.0702379 0.320286 0 0.489856 0 0.666667C0 0.843478 0.0702379 1.01305 0.195262 1.13807C0.320286 1.2631 0.489856 1.33333 0.666667 1.33333H0.814667C0.977956 1.33335 1.13556 1.3933 1.25758 1.50181C1.3796 1.61032 1.45756 1.75983 1.47667 1.922L2.394 9.722C2.48923 10.5332 2.87899 11.2812 3.48927 11.824C4.09956 12.3668 4.8879 12.6667 5.70467 12.6667H12.6667C12.8435 12.6667 13.013 12.5964 13.1381 12.4714C13.2631 12.3464 13.3333 12.1768 13.3333 12C13.3333 11.8232 13.2631 11.6536 13.1381 11.5286C13.013 11.4036 12.8435 11.3333 12.6667 11.3333H5.70467C5.29204 11.3322 4.88987 11.2034 4.55329 10.9647C4.21671 10.726 3.96221 10.389 3.82467 10H11.7713C12.5529 10 13.3096 9.72549 13.9092 9.22429C14.5089 8.7231 14.9134 8.02713 15.052 7.258L15.5753 4.35533C15.6276 4.06734 15.6158 3.77138 15.5409 3.48843C15.4661 3.20547 15.3299 2.94245 15.142 2.718Z" fill="black"/>
<path d="M4.66634 15.9997C5.40272 15.9997 5.99967 15.4027 5.99967 14.6664C5.99967 13.93 5.40272 13.333 4.66634 13.333C3.92996 13.333 3.33301 13.93 3.33301 14.6664C3.33301 15.4027 3.92996 15.9997 4.66634 15.9997Z" fill="black"/>
<path d="M11.3333 15.9997C12.0697 15.9997 12.6667 15.4027 12.6667 14.6664C12.6667 13.93 12.0697 13.333 11.3333 13.333C10.597 13.333 10 13.93 10 14.6664C10 15.4027 10.597 15.9997 11.3333 15.9997Z" fill="black"/>
</g>
<defs>
<clipPath id="clip0_2037_204">
<rect width="16" height="16" fill="white"/>
</clipPath>
</defs>
</svg>
