<svg width="194" height="31" viewBox="0 0 194 31" fill="none" xmlns="http://www.w3.org/2000/svg">
<path d="M10.6822 31.0004H0.242188V0.985352H10.6822V10.3004C10.6822 11.6804 10.6072 12.9404 10.4572 14.0804H10.6822C11.0422 13.0904 11.5672 11.9654 12.2572 10.7054L17.4322 0.985352H29.2222L19.8622 15.7004L30.2122 31.0004H17.6122L12.1222 21.3704C11.7322 20.7404 11.2522 19.7804 10.6822 18.4904H10.4572C10.6072 19.3604 10.6822 20.3054 10.6822 21.3254V31.0004Z" fill="#6F9033"/>
<path d="M56.3227 27.2654H48.0427L47.2327 31.0004H35.7127L46.1077 0.985352H58.1677L68.8777 31.0004H57.3127L56.3227 27.2654ZM53.0377 14.3954C52.7977 13.3754 52.6027 12.2504 52.4527 11.0204H52.0477C52.0177 12.1004 51.8527 13.2254 51.5527 14.3954L50.0677 20.1554H54.4327L53.0377 14.3954Z" fill="#6F9033"/>
<path d="M89.8491 31.0004H79.1391V10.4804L73.0191 10.7504V0.985352H95.9691V10.7504L89.8491 10.4804V31.0004Z" fill="#6F9033"/>
<path d="M124.563 31.0004H104.493V0.985352H115.383V21.3254H124.563V31.0004Z" fill="#6F9033"/>
<path d="M153.918 31.0004H133.398V0.985352H153.648V9.22035H144.288V12.0104H152.793V19.8854H144.288V22.7654H153.918V31.0004Z" fill="#6F9033"/>
<path d="M174.149 31.0004H163.754V0.985352H174.149L181.124 12.3254C182.324 14.2754 183.269 16.0454 183.959 17.6354H184.274C183.644 14.9954 183.329 12.6254 183.329 10.5254V0.985352H193.769V31.0004H183.329L175.859 19.1654C175.199 18.1154 174.509 16.8104 173.789 15.2504H173.474C173.924 17.5604 174.149 19.4054 174.149 20.7854V31.0004Z" fill="#6F9033"/>
</svg>
