<svg width="19" height="6" viewBox="0 0 19 6" fill="none" xmlns="http://www.w3.org/2000/svg">
<path d="M4.29198 0.0536788L0.189992 2.61983C0.131644 2.66111 0.083717 2.71748 0.0505443 2.78386C0.0173716 2.85024 -1.34433e-07 2.92452 -1.31134e-07 3C-1.27835e-07 3.07548 0.0173717 3.14976 0.0505444 3.21614C0.0837171 3.28252 0.131644 3.33889 0.189992 3.38017L4.29198 5.94632C4.37192 5.99329 4.46401 6.0101 4.55374 5.99412C4.64347 5.97814 4.72574 5.93027 4.78758 5.85806C4.84941 5.78585 4.8873 5.6934 4.89526 5.5953C4.90322 5.49719 4.88081 5.39901 4.83155 5.31622L4.83155 3.44001L18.5937 3.44001C18.7015 3.44001 18.8048 3.39365 18.881 3.31114C18.9572 3.22862 19 3.1167 19 3C19 2.8833 18.9572 2.77138 18.881 2.68886C18.8048 2.60635 18.7015 2.55999 18.5937 2.55999L4.83155 2.55999L4.83155 0.683775C4.88081 0.60099 4.90322 0.502806 4.89526 0.404701C4.8873 0.306596 4.84941 0.214152 4.78758 0.141941C4.72574 0.0697306 4.64347 0.0218604 4.55374 0.00587968C4.46401 -0.010101 4.37192 0.00671606 4.29198 0.0536788Z" fill="#111111"/>
</svg>
