<svg width="52" height="48" viewBox="0 0 52 48" fill="none" xmlns="http://www.w3.org/2000/svg">
<path d="M51.9134 27.7319L47.9663 5.34591C47.4298 2.30439 44.5185 0.266087 41.4775 0.802472L7.62304 6.77206C4.58142 7.30834 2.54322 10.2191 3.0795 13.2606L3.36954 14.9057C1.38867 15.7698 0 17.7462 0 20.0419V42.214C0 45.3025 2.51267 47.8151 5.60113 47.8151H39.2079C42.2964 47.8151 44.8091 45.3025 44.8091 42.214V34.672L47.3699 34.2205C48.8433 33.9607 50.1273 33.1427 50.9855 31.9171C51.8437 30.6916 52.1732 29.2051 51.9134 27.7319ZM48.4829 30.1647C48.0929 30.7218 47.5091 31.0936 46.8394 31.2117L44.8091 31.5697V29.8285V22.8983V20.0418C44.8091 16.9533 42.2964 14.4406 39.2079 14.4406H6.38998L6.08833 12.73C5.9702 12.0603 6.1201 11.3847 6.51015 10.8276C6.90019 10.2705 7.48393 9.89872 8.15362 9.78058L42.0081 3.8111C42.1571 3.78482 42.3052 3.77219 42.4515 3.77219C43.663 3.77219 44.7401 4.64271 44.9576 5.87628L48.9047 28.2623C49.0228 28.9321 48.873 29.6077 48.4829 30.1647ZM39.2079 44.76H5.60113C4.19729 44.76 3.05516 43.6179 3.05516 42.214V31.356H41.7539V42.2139C41.7539 43.6179 40.6118 44.76 39.2079 44.76ZM5.60113 17.4959H39.2079C40.6118 17.4959 41.7539 18.638 41.7539 20.0419V21.3709H3.05516V20.0419C3.05516 18.638 4.19729 17.4959 5.60113 17.4959ZM41.7539 24.426V28.301H3.05516V24.426H41.7539Z" fill="#8199D5"/>
<path d="M14.7009 38.625H7.77075C6.92711 38.625 6.24316 39.3089 6.24316 40.1526C6.24316 40.9962 6.92711 41.6802 7.77075 41.6802H14.7009C15.5445 41.6802 16.2285 40.9962 16.2285 40.1526C16.2285 39.3089 15.5445 38.625 14.7009 38.625Z" fill="#8199D5"/>
</svg>
