<svg width="63" height="35" viewBox="0 0 63 35" fill="none" xmlns="http://www.w3.org/2000/svg">
<rect width="63" height="35" rx="5" fill="white"/>
<g clip-path="url(#clip0_448_9523)">
<path d="M29.5999 22.8273H26.6836L28.5076 11.2109H31.4237L29.5999 22.8273Z" fill="#00579F"/>
<path d="M40.1718 11.4946C39.5966 11.2595 38.6843 11 37.5562 11C34.6763 11 32.6483 12.5817 32.6358 14.8431C32.6119 16.5115 34.0878 17.4382 35.1917 17.9945C36.3199 18.563 36.7035 18.934 36.7035 19.4407C36.692 20.2189 35.7918 20.5777 34.9521 20.5777C33.7878 20.5777 33.164 20.3927 32.2159 19.9598L31.8319 19.7742L31.4238 22.3818C32.1078 22.7027 33.3679 22.9875 34.6763 23C37.7362 23 39.7283 21.4428 39.7519 19.0329C39.7636 17.7105 38.9842 16.6973 37.304 15.8693C36.284 15.3378 35.6594 14.9794 35.6594 14.4356C35.6714 13.9412 36.1877 13.4348 37.3391 13.4348C38.2872 13.41 38.9837 13.6447 39.5114 13.8796L39.7752 14.003L40.1718 11.4946Z" fill="#00579F"/>
<path d="M44.0471 18.712C44.2872 18.0447 45.2114 15.4619 45.2114 15.4619C45.1993 15.4867 45.4511 14.7822 45.5951 14.3497L45.7989 15.3507C45.7989 15.3507 46.3511 18.1312 46.471 18.712C46.0153 18.712 44.6231 18.712 44.0471 18.712ZM47.6468 11.2109H45.3911C44.6955 11.2109 44.167 11.4208 43.8669 12.1747L39.5352 22.8271H42.5951C42.5951 22.8271 43.0989 21.3934 43.2071 21.0846C43.5428 21.0846 46.5195 21.0846 46.9514 21.0846C47.0351 21.4924 47.2993 22.8271 47.2993 22.8271H49.9995L47.6468 11.2109Z" fill="#00579F"/>
<path d="M24.2478 11.2109L21.3919 19.1322L21.0798 17.5256C20.5518 15.6719 18.8958 13.6579 17.0479 12.6565L19.6638 22.8149H22.7477L27.3315 11.2109H24.2478Z" fill="#00579F"/>
<path d="M18.74 11.2109H14.048L14 11.4456C17.66 12.4096 20.084 14.7332 21.0799 17.5261L20.0599 12.1874C19.892 11.4455 19.3759 11.2354 18.74 11.2109Z" fill="#FAA61A"/>
</g>
<defs>
<clipPath id="clip0_448_9523">
<rect width="36" height="12" fill="white" transform="translate(14 11)"/>
</clipPath>
</defs>
</svg>
